<svg width="60" height="62" viewBox="0 0 60 62" fill="none" xmlns="http://www.w3.org/2000/svg">
<rect y="2" width="60" height="60" fill="black"/>
<path d="M15.163 30H8V28.898C8.30933 28.7047 8.638 28.5403 8.986 28.405C9.35333 28.2503 9.711 28.1343 10.059 28.057L17.541 9.352H19.687L26.966 28.057C27.3527 28.1343 27.7393 28.2503 28.126 28.405C28.5127 28.5403 28.851 28.7047 29.141 28.898V30H20.064V28.898C20.4313 28.724 20.8277 28.5597 21.253 28.405C21.6783 28.2503 22.0843 28.1343 22.471 28.057L20.789 23.446H14.351L12.64 28.057C13.5293 28.173 14.3703 28.4533 15.163 28.898V30ZM15.047 21.561H20.18L18.295 16.022L17.744 13.528H17.686L17.048 16.08L15.047 21.561ZM31.157 30V28.898C31.4856 28.7047 31.853 28.5403 32.259 28.405C32.665 28.2503 33.0903 28.1343 33.535 28.057V11.643C33.0903 11.5463 32.6553 11.4303 32.23 11.295C31.824 11.1403 31.4663 10.976 31.157 10.802V9.7H34.521C34.8496 9.7 35.2556 9.69033 35.739 9.671C36.2223 9.65167 36.725 9.63233 37.247 9.613C37.769 9.57433 38.2716 9.54533 38.755 9.526C39.2576 9.48733 39.683 9.468 40.031 9.468C41.713 9.468 43.2113 9.69033 44.526 10.135C45.86 10.5797 46.9813 11.2273 47.89 12.078C48.818 12.9287 49.5236 13.9823 50.007 15.239C50.5096 16.4957 50.761 17.9457 50.761 19.589C50.761 21.1937 50.529 22.6533 50.065 23.968C49.601 25.2827 48.905 26.404 47.977 27.332C47.049 28.26 45.8696 28.985 44.439 29.507C43.0276 30.0097 41.365 30.261 39.451 30.261C39.1996 30.261 38.8613 30.2417 38.436 30.203C38.0106 30.1837 37.5563 30.1547 37.073 30.116C36.5896 30.0967 36.1063 30.0677 35.623 30.029C35.1396 30.0097 34.7143 30 34.347 30H31.157ZM39.654 11.353C39.306 11.353 38.958 11.3627 38.61 11.382C38.262 11.4013 37.9623 11.4303 37.711 11.469V28.26C37.7883 28.2793 37.9236 28.2987 38.117 28.318C38.3103 28.318 38.5036 28.3277 38.697 28.347C38.9096 28.347 39.1126 28.3567 39.306 28.376C39.4993 28.376 39.6443 28.376 39.741 28.376C40.8623 28.376 41.8096 28.144 42.583 27.68C43.3756 27.216 44.0233 26.5877 44.526 25.795C45.0286 25.0023 45.396 24.0743 45.628 23.011C45.86 21.9477 45.976 20.8167 45.976 19.618C45.976 18.5547 45.8503 17.53 45.599 16.544C45.367 15.558 44.9996 14.6783 44.497 13.905C43.9943 13.1317 43.337 12.513 42.525 12.049C41.7323 11.585 40.7753 11.353 39.654 11.353Z" fill="white"/>
<path d="M6.46 55V54.126C6.75133 53.9573 7.058 53.8117 7.38 53.689C7.71733 53.5663 8.03933 53.4897 8.346 53.459V40.441C8.03933 40.3797 7.71733 40.2953 7.38 40.188C7.04267 40.0653 6.736 39.9273 6.46 39.774V38.9H10.163C10.7457 38.9 11.2977 38.877 11.819 38.831C12.3403 38.785 12.9383 38.762 13.613 38.762C14.349 38.762 15.062 38.8157 15.752 38.923C16.442 39.0303 17.0553 39.222 17.592 39.498C18.1287 39.774 18.558 40.165 18.88 40.671C19.202 41.1617 19.363 41.798 19.363 42.58C19.363 43.0707 19.271 43.5307 19.087 43.96C18.9183 44.374 18.673 44.742 18.351 45.064C18.0443 45.386 17.6763 45.6543 17.247 45.869C16.833 46.0837 16.3807 46.237 15.89 46.329V46.421C16.3807 46.4823 16.8713 46.5973 17.362 46.766C17.868 46.9347 18.3203 47.18 18.719 47.502C19.1177 47.824 19.4397 48.2303 19.685 48.721C19.9457 49.1963 20.076 49.7637 20.076 50.423C20.076 51.251 19.892 51.964 19.524 52.562C19.156 53.16 18.6577 53.6507 18.029 54.034C17.4157 54.4173 16.7103 54.701 15.913 54.885C15.1157 55.0537 14.2877 55.138 13.429 55.138C13.107 55.138 12.7543 55.1303 12.371 55.115C11.9877 55.0997 11.6043 55.0843 11.221 55.069C10.8377 55.0537 10.462 55.0383 10.094 55.023C9.74133 55.0077 9.44233 55 9.197 55H6.46ZM13.406 53.643C14.372 53.643 15.131 53.3593 15.683 52.792C16.235 52.2093 16.511 51.4427 16.511 50.492C16.511 49.9093 16.419 49.434 16.235 49.066C16.051 48.6827 15.798 48.3837 15.476 48.169C15.154 47.939 14.7707 47.7857 14.326 47.709C13.8813 47.617 13.3983 47.571 12.877 47.571H11.658V53.482C11.8727 53.528 12.095 53.5663 12.325 53.597C12.5703 53.6277 12.9307 53.643 13.406 53.643ZM12.394 46.076C12.6547 46.076 12.9153 46.0683 13.176 46.053C13.4367 46.0223 13.682 45.9917 13.912 45.961C14.51 45.7157 14.993 45.34 15.361 44.834C15.729 44.3127 15.913 43.7223 15.913 43.063C15.913 42.097 15.66 41.3917 15.154 40.947C14.648 40.487 13.9963 40.257 13.199 40.257C12.8617 40.257 12.5703 40.2647 12.325 40.28C12.0797 40.2953 11.8573 40.3183 11.658 40.349V46.076H12.394ZM26.6175 55H20.9365V54.126C21.1819 53.9727 21.4425 53.8423 21.7185 53.735C22.0099 53.6123 22.2935 53.5203 22.5695 53.459L28.5035 38.624H30.2055L35.9785 53.459C36.2852 53.5203 36.5919 53.6123 36.8985 53.735C37.2052 53.8423 37.4735 53.9727 37.7035 54.126V55H30.5045V54.126C30.7959 53.988 31.1102 53.8577 31.4475 53.735C31.7849 53.6123 32.1069 53.5203 32.4135 53.459L31.0795 49.802H25.9735L24.6165 53.459C25.3219 53.551 25.9889 53.7733 26.6175 54.126V55ZM26.5255 48.307H30.5965L29.1015 43.914L28.6645 41.936H28.6185L28.1125 43.96L26.5255 48.307ZM43.4884 53.459C43.841 53.5357 44.1554 53.6353 44.4314 53.758C44.7074 53.8807 44.9757 54.0033 45.2364 54.126V55H38.1524V54.126C38.4897 53.942 38.8117 53.804 39.1184 53.712C39.425 53.6047 39.7317 53.5203 40.0384 53.459V40.441C39.2717 40.2723 38.643 40.05 38.1524 39.774V38.9H40.5904C40.897 38.9 41.242 38.8923 41.6254 38.877C42.024 38.8617 42.438 38.8463 42.8674 38.831C43.2967 38.8003 43.7337 38.7773 44.1784 38.762C44.623 38.7313 45.0524 38.716 45.4664 38.716C46.3097 38.716 47.084 38.8157 47.7894 39.015C48.5101 39.199 49.1234 39.4827 49.6294 39.866C50.1507 40.2493 50.5494 40.7323 50.8254 41.315C51.1167 41.8823 51.2624 42.5493 51.2624 43.316C51.2624 44.42 50.9941 45.3247 50.4574 46.03C49.9207 46.7353 49.1847 47.2643 48.2494 47.617C48.8627 48.583 49.5144 49.572 50.2044 50.584C50.8944 51.5807 51.6227 52.5467 52.3894 53.482L53.4934 54.218V55H49.6524L48.6634 54.241C47.9581 53.3977 47.3294 52.424 46.7774 51.32C46.2407 50.2007 45.7654 49.1043 45.3514 48.031H43.4884V53.459ZM44.6384 40.211C44.1631 40.211 43.7797 40.257 43.4884 40.349V46.766H44.8454C45.6274 46.766 46.2944 46.49 46.8464 45.938C47.3984 45.3707 47.6744 44.535 47.6744 43.431C47.6744 42.8637 47.5977 42.3807 47.4444 41.982C47.2911 41.568 47.0764 41.2307 46.8004 40.97C46.5244 40.7093 46.2024 40.5177 45.8344 40.395C45.4664 40.2723 45.0677 40.211 44.6384 40.211Z" fill="white"/>
<path d="M46 4H2V60H53.5" stroke="white"/>
<path d="M44 4H58V60H52.8148" stroke="white"/>
<path d="M10.0047 35.9503H9V35.7928C9.04339 35.7652 9.08949 35.7417 9.1383 35.7224C9.18983 35.7003 9.24 35.6837 9.28881 35.6727L10.3383 33H10.6393L11.6603 35.6727C11.7145 35.6837 11.7688 35.7003 11.823 35.7224C11.8773 35.7417 11.9247 35.7652 11.9654 35.7928V35.9503H10.6922V35.7928C10.7437 35.768 10.7993 35.7445 10.859 35.7224C10.9186 35.7003 10.9756 35.6837 11.0298 35.6727L10.7939 35.0138H9.89084L9.65084 35.6727C9.77559 35.6892 9.89355 35.7293 10.0047 35.7928V35.9503ZM9.98846 34.7445H10.7085L10.4441 33.953L10.3668 33.5967H10.3586L10.2691 33.9613L9.98846 34.7445Z" fill="white"/>
<path d="M12.5329 35.9503V35.7928C12.579 35.7652 12.6305 35.7417 12.6875 35.7224C12.7444 35.7003 12.8041 35.6837 12.8665 35.6727V33.3273C12.8041 33.3135 12.7431 33.297 12.6834 33.2776C12.6265 33.2555 12.5763 33.232 12.5329 33.2072V33.0497H13.0048C13.0509 33.0497 13.1078 33.0483 13.1756 33.0456C13.2434 33.0428 13.3139 33.0401 13.3871 33.0373C13.4604 33.0318 13.5309 33.0276 13.5987 33.0249C13.6692 33.0193 13.7288 33.0166 13.7776 33.0166C14.0136 33.0166 14.2237 33.0483 14.4081 33.1119C14.5953 33.1754 14.7525 33.268 14.88 33.3895C15.0102 33.511 15.1092 33.6616 15.177 33.8412C15.2475 34.0207 15.2827 34.2279 15.2827 34.4627C15.2827 34.692 15.2502 34.9006 15.1851 35.0884C15.12 35.2762 15.0224 35.4365 14.8922 35.5691C14.762 35.7017 14.5966 35.8052 14.3959 35.8798C14.198 35.9517 13.9648 35.9876 13.6963 35.9876C13.661 35.9876 13.6136 35.9848 13.5539 35.9793C13.4943 35.9765 13.4305 35.9724 13.3627 35.9669C13.2949 35.9641 13.2271 35.9599 13.1593 35.9544C13.0915 35.9517 13.0319 35.9503 12.9804 35.9503H12.5329ZM13.7248 33.2859C13.676 33.2859 13.6271 33.2873 13.5783 33.2901C13.5295 33.2928 13.4875 33.297 13.4522 33.3025V35.7017C13.4631 35.7044 13.4821 35.7072 13.5092 35.7099C13.5363 35.7099 13.5634 35.7113 13.5905 35.7141C13.6204 35.7141 13.6488 35.7155 13.6759 35.7182C13.7031 35.7182 13.7234 35.7182 13.737 35.7182C13.8943 35.7182 14.0271 35.6851 14.1356 35.6188C14.2468 35.5525 14.3376 35.4627 14.4081 35.3494C14.4787 35.2362 14.5302 35.1036 14.5627 34.9517C14.5953 34.7997 14.6115 34.6381 14.6115 34.4669C14.6115 34.3149 14.5939 34.1685 14.5587 34.0276C14.5261 33.8867 14.4746 33.761 14.4041 33.6506C14.3336 33.5401 14.2414 33.4517 14.1275 33.3854C14.0163 33.3191 13.882 33.2859 13.7248 33.2859Z" fill="white"/>
<path d="M16.96 35.6727C17.0223 35.6865 17.0779 35.7044 17.1267 35.7265C17.1756 35.7486 17.223 35.7707 17.2691 35.7928V35.9503H16.0162V35.7928C16.0759 35.7597 16.1329 35.7348 16.1871 35.7182C16.2413 35.6989 16.2956 35.6837 16.3498 35.6727V33.3273C16.2142 33.297 16.103 33.2569 16.0162 33.2072V33.0497H16.4474C16.5017 33.0497 16.5627 33.0483 16.6305 33.0456C16.701 33.0428 16.7742 33.0401 16.8501 33.0373C16.9261 33.0318 17.0034 33.0276 17.082 33.0249C17.1606 33.0193 17.2366 33.0166 17.3098 33.0166C17.4589 33.0166 17.5959 33.0345 17.7206 33.0704C17.8481 33.1036 17.9566 33.1547 18.0461 33.2238C18.1383 33.2928 18.2088 33.3798 18.2576 33.4848C18.3091 33.587 18.3349 33.7072 18.3349 33.8453C18.3349 34.0442 18.2874 34.2072 18.1925 34.3343C18.0976 34.4613 17.9674 34.5566 17.802 34.6202C17.9105 34.7942 18.0257 34.9724 18.1477 35.1547C18.2698 35.3343 18.3986 35.5083 18.5342 35.6768L18.7294 35.8094V35.9503H18.0501L17.8752 35.8135C17.7505 35.6616 17.6393 35.4862 17.5417 35.2873C17.4467 35.0856 17.3627 34.8881 17.2895 34.6948H16.96V35.6727ZM17.1634 33.2859C17.0793 33.2859 17.0115 33.2942 16.96 33.3108V34.4669H17.2C17.3383 34.4669 17.4562 34.4171 17.5539 34.3177C17.6515 34.2155 17.7003 34.0649 17.7003 33.866C17.7003 33.7638 17.6867 33.6768 17.6596 33.605C17.6325 33.5304 17.5945 33.4696 17.5457 33.4227C17.4969 33.3757 17.44 33.3412 17.3749 33.3191C17.3098 33.297 17.2393 33.2859 17.1634 33.2859Z" fill="white"/>
<path d="M20.6505 35.9503H19.3814V35.7928C19.4898 35.732 19.5997 35.692 19.7108 35.6727V33.3273C19.6566 33.3191 19.5997 33.3039 19.54 33.2818C19.4803 33.2597 19.4275 33.2348 19.3814 33.2072V33.0497H20.6505V33.2072C20.6017 33.2376 20.5474 33.2638 20.4878 33.2859C20.4308 33.3052 20.3752 33.3191 20.321 33.3273V35.6727C20.3752 35.6837 20.4308 35.6989 20.4878 35.7182C20.5474 35.7376 20.6017 35.7624 20.6505 35.7928V35.9503Z" fill="white"/>
<path d="M22.2657 35.9503H21.2609V35.7928C21.3043 35.7652 21.3504 35.7417 21.3993 35.7224C21.4508 35.7003 21.5009 35.6837 21.5498 35.6727L22.5992 33H22.9003L23.9213 35.6727C23.9755 35.6837 24.0297 35.7003 24.084 35.7224C24.1382 35.7417 24.1857 35.7652 24.2263 35.7928V35.9503H22.9531V35.7928C23.0047 35.768 23.0603 35.7445 23.1199 35.7224C23.1796 35.7003 23.2365 35.6837 23.2908 35.6727L23.0548 35.0138H22.1518L21.9118 35.6727C22.0365 35.6892 22.1545 35.7293 22.2657 35.7928V35.9503ZM22.2494 34.7445H22.9694L22.705 33.953L22.6277 33.5967H22.6196L22.5301 33.9613L22.2494 34.7445Z" fill="white"/>
<path d="M26.7057 33.0497H27.7145V33.2072C27.663 33.2486 27.606 33.2859 27.5437 33.3191C27.4813 33.3494 27.423 33.3729 27.3687 33.3895V36H27.023L25.5871 33.8867L25.4244 33.5677H25.4122L25.4488 33.8992V35.6271C25.503 35.6409 25.5627 35.6644 25.6277 35.6975C25.6955 35.7279 25.7525 35.7597 25.7986 35.7928V35.9503H24.7939V35.7928C24.8427 35.7597 24.8956 35.7293 24.9525 35.7017C25.0122 35.6713 25.0732 35.6464 25.1356 35.6271V33.3646C25.0813 33.3425 25.0271 33.3177 24.9728 33.2901C24.9186 33.2624 24.8698 33.2334 24.8264 33.203V33.0497H25.705L26.8725 34.7735L27.0596 35.1298H27.0759L27.0555 34.7735V33.3895C26.9904 33.3674 26.9267 33.3412 26.8643 33.3108C26.8047 33.2776 26.7518 33.2431 26.7057 33.2072V33.0497Z" fill="white"/>
<path d="M28.4419 34.5C28.4419 34.2845 28.4717 34.0856 28.5314 33.9033C28.591 33.7182 28.6792 33.5594 28.7958 33.4268C28.9124 33.2914 29.0561 33.1865 29.227 33.1119C29.3978 33.0373 29.5944 33 29.8168 33C30.0391 33 30.2358 33.0373 30.4066 33.1119C30.5774 33.1865 30.7198 33.2914 30.8337 33.4268C30.9503 33.5594 31.0385 33.7182 31.0981 33.9033C31.1578 34.0856 31.1876 34.2845 31.1876 34.5C31.1876 34.7155 31.1578 34.9157 31.0981 35.1008C31.0385 35.2831 30.9503 35.442 30.8337 35.5773C30.7198 35.7099 30.5774 35.8135 30.4066 35.8881C30.2358 35.9627 30.0391 36 29.8168 36C29.5944 36 29.3978 35.9627 29.227 35.8881C29.0561 35.8135 28.9124 35.7099 28.7958 35.5773C28.6792 35.442 28.591 35.2831 28.5314 35.1008C28.4717 34.9157 28.4419 34.7155 28.4419 34.5ZM29.1334 34.5C29.1334 34.6768 29.147 34.8412 29.1741 34.9931C29.2012 35.1423 29.2432 35.2721 29.3002 35.3826C29.3598 35.4903 29.4344 35.576 29.5239 35.6395C29.6161 35.7003 29.7259 35.7307 29.8534 35.7307C29.97 35.7307 30.069 35.7003 30.1503 35.6395C30.2317 35.576 30.2981 35.4903 30.3497 35.3826C30.4012 35.2721 30.4378 35.1423 30.4595 34.9931C30.4839 34.8412 30.4961 34.6768 30.4961 34.5C30.4961 34.3232 30.4825 34.1602 30.4554 34.011C30.431 33.8591 30.3903 33.7293 30.3334 33.6215C30.2791 33.511 30.2059 33.4254 30.1137 33.3646C30.0242 33.3011 29.9144 33.2693 29.7842 33.2693C29.6595 33.2693 29.5551 33.3011 29.471 33.3646C29.3869 33.4254 29.3192 33.511 29.2676 33.6215C29.2188 33.7293 29.1836 33.8591 29.1619 34.011C29.1429 34.1602 29.1334 34.3232 29.1334 34.5Z" fill="white"/>
<path d="M35.6192 35.0801H35.786C35.7968 35.1243 35.8063 35.1782 35.8144 35.2417C35.8253 35.3025 35.8334 35.3688 35.8388 35.4406C35.847 35.5097 35.8524 35.5787 35.8551 35.6478C35.8578 35.7169 35.8592 35.779 35.8592 35.8343C35.7643 35.895 35.6449 35.9378 35.5012 35.9627C35.3602 35.9876 35.2151 36 35.066 36C34.8409 36 34.6361 35.9724 34.4517 35.9171C34.27 35.8591 34.1141 35.7693 33.9839 35.6478C33.8565 35.5235 33.7575 35.3674 33.687 35.1796C33.6165 34.989 33.5812 34.761 33.5812 34.4959C33.5812 34.2334 33.6192 34.0083 33.6951 33.8204C33.7738 33.6298 33.8782 33.4738 34.0083 33.3522C34.1385 33.2307 34.289 33.1423 34.4599 33.087C34.6334 33.029 34.8151 33 35.0049 33C35.1839 33 35.3453 33.0138 35.489 33.0414C35.6354 33.0663 35.7548 33.1008 35.847 33.145C35.847 33.1892 35.8443 33.2459 35.8388 33.3149C35.8361 33.384 35.8293 33.4572 35.8185 33.5345C35.8104 33.6091 35.7995 33.6837 35.786 33.7583C35.7751 33.8301 35.7643 33.8909 35.7534 33.9406H35.5826L35.3588 33.3149C35.3344 33.3011 35.2951 33.2901 35.2409 33.2818C35.1866 33.2735 35.131 33.2693 35.0741 33.2693C34.9629 33.2693 34.8585 33.2928 34.7609 33.3398C34.6633 33.384 34.5765 33.4558 34.5005 33.5552C34.4246 33.6547 34.365 33.7831 34.3216 33.9406C34.2782 34.0953 34.2565 34.2818 34.2565 34.5C34.2565 34.895 34.3338 35.1989 34.4883 35.4116C34.6429 35.6243 34.8531 35.7307 35.1188 35.7307C35.1948 35.7307 35.2585 35.7251 35.31 35.7141C35.3643 35.7003 35.4009 35.6823 35.4199 35.6602L35.6192 35.0801Z" fill="white"/>
<path d="M36.7229 34.5C36.7229 34.2845 36.7528 34.0856 36.8124 33.9033C36.8721 33.7182 36.9602 33.5594 37.0768 33.4268C37.1934 33.2914 37.3372 33.1865 37.508 33.1119C37.6789 33.0373 37.8755 33 38.0978 33C38.3202 33 38.5168 33.0373 38.6877 33.1119C38.8585 33.1865 39.0009 33.2914 39.1148 33.4268C39.2314 33.5594 39.3195 33.7182 39.3792 33.9033C39.4388 34.0856 39.4687 34.2845 39.4687 34.5C39.4687 34.7155 39.4388 34.9157 39.3792 35.1008C39.3195 35.2831 39.2314 35.442 39.1148 35.5773C39.0009 35.7099 38.8585 35.8135 38.6877 35.8881C38.5168 35.9627 38.3202 36 38.0978 36C37.8755 36 37.6789 35.9627 37.508 35.8881C37.3372 35.8135 37.1934 35.7099 37.0768 35.5773C36.9602 35.442 36.8721 35.2831 36.8124 35.1008C36.7528 34.9157 36.7229 34.7155 36.7229 34.5ZM37.4145 34.5C37.4145 34.6768 37.428 34.8412 37.4551 34.9931C37.4823 35.1423 37.5243 35.2721 37.5812 35.3826C37.6409 35.4903 37.7155 35.576 37.805 35.6395C37.8972 35.7003 38.007 35.7307 38.1344 35.7307C38.2511 35.7307 38.35 35.7003 38.4314 35.6395C38.5128 35.576 38.5792 35.4903 38.6307 35.3826C38.6822 35.2721 38.7188 35.1423 38.7405 34.9931C38.765 34.8412 38.7772 34.6768 38.7772 34.5C38.7772 34.3232 38.7636 34.1602 38.7365 34.011C38.7121 33.8591 38.6714 33.7293 38.6144 33.6215C38.5602 33.511 38.487 33.4254 38.3948 33.3646C38.3053 33.3011 38.1955 33.2693 38.0653 33.2693C37.9406 33.2693 37.8361 33.3011 37.7521 33.3646C37.668 33.4254 37.6002 33.511 37.5487 33.6215C37.4999 33.7293 37.4646 33.8591 37.4429 34.011C37.4239 34.1602 37.4145 34.3232 37.4145 34.5Z" fill="white"/>
<path d="M41.1035 35.6727C41.2283 35.6892 41.3462 35.7293 41.4574 35.7928V35.9503H40.2005V35.7928C40.2439 35.768 40.29 35.7459 40.3388 35.7265C40.3876 35.7044 40.4391 35.6865 40.4934 35.6727V33.3273C40.431 33.3135 40.3754 33.2956 40.3266 33.2735C40.2805 33.2514 40.2385 33.2293 40.2005 33.2072V33.0497H42.3279C42.3279 33.105 42.3252 33.1657 42.3198 33.232C42.3144 33.2956 42.3076 33.3619 42.2995 33.4309C42.294 33.4972 42.2859 33.5635 42.275 33.6298C42.2669 33.6934 42.2574 33.7528 42.2466 33.808H42.0798L41.8927 33.3191H41.1035V34.4088H41.6852L41.8439 34.1229H41.97C41.9889 34.2638 41.9971 34.4088 41.9944 34.558C41.9917 34.7072 41.9835 34.8439 41.97 34.9682H41.8439L41.6852 34.6782H41.1035V35.6727Z" fill="white"/>
<path d="M43.9314 35.6727C44.0562 35.6892 44.1741 35.7293 44.2853 35.7928V35.9503H43.0284V35.7928C43.0718 35.768 43.1179 35.7459 43.1667 35.7265C43.2155 35.7044 43.267 35.6865 43.3213 35.6727V33.3273C43.2589 33.3135 43.2033 33.2956 43.1545 33.2735C43.1084 33.2514 43.0663 33.2293 43.0284 33.2072V33.0497H45.1558C45.1558 33.105 45.1531 33.1657 45.1477 33.232C45.1423 33.2956 45.1355 33.3619 45.1273 33.4309C45.1219 33.4972 45.1138 33.5635 45.1029 33.6298C45.0948 33.6934 45.0853 33.7528 45.0745 33.808H44.9077L44.7206 33.3191H43.9314V34.4088H44.5131L44.6717 34.1229H44.7978C44.8168 34.2638 44.825 34.4088 44.8223 34.558C44.8195 34.7072 44.8114 34.8439 44.7978 34.9682H44.6717L44.5131 34.6782H43.9314V35.6727Z" fill="white"/>
<path d="M47.9959 33.0497C47.9905 33.174 47.981 33.3025 47.9674 33.4351C47.9539 33.5677 47.9362 33.692 47.9145 33.808H47.7478L47.5606 33.3191H46.8V34.3343H47.2962L47.4752 34.0152H47.6054C47.619 34.1506 47.6257 34.3011 47.6257 34.4669C47.6257 34.6326 47.619 34.7873 47.6054 34.9309H47.4752L47.2962 34.6036H46.8V35.6809H47.5932L47.8088 35.1547H47.9756C47.9864 35.2072 47.9973 35.2666 48.0081 35.3329C48.0189 35.3992 48.0271 35.4682 48.0325 35.5401C48.0406 35.6091 48.0461 35.6796 48.0488 35.7514C48.0542 35.8232 48.0569 35.8895 48.0569 35.9503H45.8563V35.7928C45.9024 35.768 45.9539 35.7445 46.0108 35.7224C46.0678 35.7003 46.1274 35.6837 46.1898 35.6727V33.3273C46.1356 33.3163 46.0773 33.3011 46.0149 33.2818C45.9552 33.2597 45.9024 33.2348 45.8563 33.2072V33.0497H47.9959Z" fill="white"/>
<path d="M50.939 33.0497C50.9336 33.174 50.9241 33.3025 50.9105 33.4351C50.897 33.5677 50.8793 33.692 50.8576 33.808H50.6909L50.5037 33.3191H49.7431V34.3343H50.2393L50.4183 34.0152H50.5485C50.562 34.1506 50.5688 34.3011 50.5688 34.4669C50.5688 34.6326 50.562 34.7873 50.5485 34.9309H50.4183L50.2393 34.6036H49.7431V35.6809H50.5363L50.7519 35.1547H50.9186C50.9295 35.2072 50.9403 35.2666 50.9512 35.3329C50.962 35.3992 50.9702 35.4682 50.9756 35.5401C50.9837 35.6091 50.9892 35.6796 50.9919 35.7514C50.9973 35.8232 51 35.8895 51 35.9503H48.7993V35.7928C48.8454 35.768 48.897 35.7445 48.9539 35.7224C49.0109 35.7003 49.0705 35.6837 49.1329 35.6727V33.3273C49.0787 33.3163 49.0204 33.3011 48.958 33.2818C48.8983 33.2597 48.8454 33.2348 48.7993 33.2072V33.0497H50.939Z" fill="white"/>
<path d="M57 34.5H53" stroke="white" stroke-width="0.5"/>
<path d="M7 34.5H3" stroke="white" stroke-width="0.5"/>
</svg>
